<svg width="988" height="174" viewBox="0 0 988 174" fill="none" xmlns="http://www.w3.org/2000/svg">
<path d="M53 63.9245V0L0 88L53 63.9245Z" fill="white"/>
<path d="M53.4678 120V64.2697L0 88.4751L53.4678 120ZM53.4678 64.2697L107 88.4751L53.4678 0V64.2697Z" fill="white"/>
<path d="M53 64V120L107 88.3226L53 64Z" fill="white"/>
<path d="M53 130.41L0 99L53 174V130.41Z" fill="white"/>
<path d="M107 99L53 130.41V174L107 99Z" fill="white"/>
<path d="M232.914 118.454C232.914 120.302 231.258 121.955 229.407 121.955H164.722C166.378 137.317 178.36 152.291 195.311 152.291C206.904 152.291 215.477 147.818 222.004 138.484C222.685 137.512 223.66 136.831 224.829 136.831C226.68 136.831 228.043 138.192 228.043 140.04C228.043 140.72 227.849 141.207 227.556 141.693C221.029 153.069 208.073 158.611 195.311 158.611C173.489 158.611 158 139.165 158 118.357C158 97.5496 173.489 78.2005 195.311 78.2005C217.133 78.2005 232.914 97.6469 232.914 118.454ZM225.9 115.343C224.536 98.9109 212.262 84.8123 195.311 84.8123C178.36 84.8123 166.281 98.9109 164.722 115.343H225.9ZM311.531 79.2701C313.381 79.2701 314.745 80.923 314.745 82.576C314.745 84.4234 313.381 85.8818 311.531 85.8818H294.19V154.138C294.19 155.791 292.729 157.347 290.878 157.347C289.027 157.347 287.566 155.694 287.566 154.138V85.8818H270.907C269.056 85.8818 267.692 84.4234 267.692 82.576C267.692 80.923 269.056 79.2701 270.907 79.2701H287.566V54.5733C287.566 52.7259 289.027 51.3646 290.878 51.3646C292.729 51.3646 294.19 52.7259 294.19 54.5733V79.2701H311.531ZM416.937 112.426V153.652C416.937 155.5 415.865 156.861 414.209 156.861C412.358 156.861 411.481 155.5 411.481 153.652V112.426C411.481 98.5219 403.396 84.6178 387.809 84.6178C367.838 84.6178 358.973 102.022 360.045 119.816C360.045 120.302 359.947 122.344 359.947 122.635V153.652C359.947 155.5 359.07 156.861 357.219 156.861C355.369 156.861 354.492 155.5 354.492 153.652V18.2086C354.492 16.5557 355.369 15 357.219 15C359.07 15 359.947 16.6529 359.947 18.2086V94.8271C366.572 84.9095 375.437 78.2005 387.029 78.2005C406.026 78.2005 416.937 94.8271 416.937 112.426ZM533.643 118.454C533.643 120.302 531.987 121.955 530.136 121.955H465.451C467.107 137.317 479.089 152.291 496.04 152.291C507.633 152.291 516.205 147.818 522.732 138.484C523.414 137.512 524.388 136.831 525.558 136.831C527.408 136.831 528.772 138.192 528.772 140.04C528.772 140.72 528.577 141.207 528.285 141.693C521.758 153.069 508.802 158.611 496.04 158.611C474.218 158.611 458.729 139.165 458.729 118.357C458.729 97.5496 474.218 78.2005 496.04 78.2005C517.862 78.2005 533.643 97.6469 533.643 118.454ZM526.727 115.343C525.363 98.9109 513.088 84.8123 496.137 84.8123C479.187 84.8123 467.107 98.9109 465.548 115.343H526.727ZM613.234 82.576C613.234 84.6178 612.065 85.7846 610.116 86.0763C591.12 88.896 582.45 104.356 582.45 122.441V153.361C582.45 155.208 580.988 156.569 579.137 156.569C577.286 156.569 575.825 155.208 575.825 153.361V82.7704C575.825 80.923 577.286 79.5618 579.137 79.5618C580.988 79.5618 582.45 80.923 582.45 82.7704V97.1607C587.905 88.1182 598.523 79.5618 609.629 79.5618C611.285 79.5618 613.234 80.7286 613.234 82.576ZM719.614 118.454C719.614 120.302 717.958 121.955 716.107 121.955H651.421C653.077 137.317 665.06 152.291 682.011 152.291C693.603 152.291 702.176 147.818 708.703 138.484C709.385 137.512 710.359 136.831 711.528 136.831C713.379 136.831 714.743 138.192 714.743 140.04C714.743 140.72 714.548 141.207 714.256 141.693C707.729 153.069 694.772 158.611 682.011 158.611C660.189 158.611 644.7 139.165 644.7 118.357C644.7 97.5496 660.189 78.2005 682.011 78.2005C703.832 78.1033 719.614 97.6469 719.614 118.454ZM712.697 115.343C711.333 98.9109 699.059 84.8123 682.108 84.8123C665.157 84.8123 653.077 98.9109 651.519 115.343H712.697ZM824.728 83.2566V154.041C824.728 155.889 823.072 157.25 821.416 157.25C819.565 157.25 818.103 155.889 818.103 154.041V140.72C812.648 151.319 803.198 159 791.119 159C771.83 159 761.114 142.373 761.114 124.774V83.3538C761.114 81.7009 762.575 80.1452 764.426 80.1452C766.277 80.1452 767.738 81.7981 767.738 83.3538V124.774C767.738 138.679 775.629 152.583 791.216 152.583C813.038 152.583 818.201 132.261 818.201 109.801V83.451C818.201 81.7981 819.662 80.2424 821.513 80.2424C823.072 80.0479 824.728 81.7009 824.728 83.2566ZM988 112.232V153.652C988 155.5 986.344 156.861 984.688 156.861C982.837 156.861 981.376 155.5 981.376 153.652V112.232C981.376 98.3275 973.485 84.7151 957.898 84.7151C938.414 84.7151 930.913 105.523 930.913 121.76V153.652C930.913 155.5 929.257 156.861 927.601 156.861C925.75 156.861 924.289 155.5 924.289 153.652V112.232C924.289 98.3275 916.593 84.7151 901.103 84.7151C881.425 84.7151 873.242 100.175 873.924 120.788V153.652C873.924 155.5 872.462 156.861 870.612 156.861C868.761 156.861 867.299 155.5 867.299 153.652V82.8677C867.299 81.0203 868.761 79.659 870.612 79.659C872.462 79.659 873.924 81.0203 873.924 82.8677V94.6327C879.379 84.715 889.608 78.2005 901.201 78.2005C914.45 78.2005 924.678 86.5625 928.867 98.8136C934.225 86.7569 944.649 78.2005 958.093 78.2005C977.187 78.2005 988 94.6327 988 112.232Z" fill="white"/>
</svg>
