<svg width="1027" height="145" viewBox="0 0 1027 145" fill="none" xmlns="http://www.w3.org/2000/svg">
<path d="M292 143.016H314.252V85.9713H377.769V143.016H400.223V13.5531H377.769V67.9679H314.252V13.5531H292V143.016ZM465.763 144.432C487.206 144.432 501.552 135.531 506.423 127.44L510.873 143H522.606V84.1508C522.606 56.2354 516.537 38.0297 474.259 38.0297C437.848 38.0297 428.947 54.6171 428.947 76.0594L449.954 75.8571C449.954 62.9108 455.213 55.2239 474.431 55.2239C495.266 55.2239 500.728 63.9222 501.335 78.8913L468.767 82.1279C439.264 84.9599 425.695 93.6582 425.695 112.673C425.695 134.52 443.512 144.432 465.763 144.432ZM471.225 127.455C456.054 127.455 447.962 122.009 447.962 112.486C447.962 104.395 454.031 100.551 472.034 98.5286L501.366 95.292V98.5286C501.366 116.516 490.271 127.455 471.225 127.455ZM547.067 143.016H568.711V85.5668C568.711 68.7771 572.959 56.8422 594.604 56.8422C596.424 56.8422 598.447 57.2468 600.47 57.2468V38.0297H597.031C576.803 38.0297 566.891 46.9302 563.654 53.8079L558.597 39.4457H547.067V143.016ZM654.091 144.432C678.568 144.432 690.098 135.329 693.77 128.249L698.594 143.016H710.327V0H689.087V52.1897C684.636 45.3119 674.304 38.0297 653.889 38.0297C619.5 38.0297 609.791 62.9264 609.791 91.2308C609.791 119.535 619.905 144.432 654.091 144.432ZM660.16 126.631C636.695 126.631 631.84 112.066 631.84 91.2308C631.84 70.3954 636.695 56.2198 660.362 56.2198C685.041 56.2198 689.289 71.1889 689.289 91.2308C689.289 112.471 684.232 126.631 660.16 126.631ZM737.433 143.016H758.688L759.093 84.9599C759.093 65.3382 763.761 56.2354 785.592 56.2354C807.641 56.2354 810.878 65.5716 810.878 84.9599V143.016H832.32V86.9983C832.32 57.2624 825.443 38.0452 791.661 38.0452C771.837 38.0452 762.734 44.9229 758.688 52.4075V0.0155598H737.448L737.433 143.016ZM893.597 144.432C915.071 144.432 929.402 135.531 934.257 127.455L938.707 143.016H950.439V84.1508C950.439 56.2354 944.371 38.0297 902.093 38.0297C865.682 38.0297 856.781 54.6171 856.781 76.0594L877.788 75.8571C877.788 62.9108 883.047 55.2239 902.264 55.2239C923.1 55.2239 928.561 63.9222 929.168 78.8913L896.6 82.1279C867.036 84.9599 853.514 93.6582 853.514 112.673C853.545 134.52 871.346 144.432 893.597 144.432ZM899.059 127.455C883.888 127.455 875.796 122.009 875.796 112.486C875.796 104.395 881.865 100.551 899.868 98.5286L929.199 95.292V98.5286C929.199 116.516 918.074 127.455 899.059 127.455ZM1026.5 143.794V126.428C1004.05 127.44 999.999 122.99 999.999 113.28V56.8422H1026.5V39.4457H999.392V13.5531H977.95V39.4457L963.168 43.8959V56.8422H977.95V113.28C977.95 137.756 992.313 145.848 1026.5 143.794Z" fill="white"/>
<path d="M208.299 120.754C208.299 120.754 176.572 116.053 159.806 114.705C143.706 113.412 124.627 112.665 104.159 112.665C83.6903 112.665 64.6113 113.412 48.5154 114.705C31.7455 116.071 0.0229797 122.594 0.0229797 122.594V130.792C0.0229797 138.079 46.6481 144 104.159 144C161.669 144 208.294 138.079 208.294 130.792L208.299 120.754Z" fill="white"/>
<path d="M72.1399 12.0132C34.1133 25.5624 8.71974 61.5657 8.71758 101.934V115.452C22.2874 112.21 36.123 110.204 50.0548 109.458C49.9607 106.865 49.9121 104.252 49.9091 101.62C49.9227 66.1488 58.4853 34.2304 72.1399 12.0132Z" fill="white"/>
<path d="M199.595 101.934C199.627 79.7837 191.922 58.3176 177.81 41.2444C183.928 60.7839 186.976 81.1545 186.847 101.629C186.847 105.355 186.751 109.038 186.56 112.678C190.903 113.347 195.204 114.259 199.445 115.411L199.595 101.934Z" fill="white"/>
<path d="M199.595 101.934C199.627 79.7837 191.922 58.3176 177.81 41.2444C183.928 60.7839 186.976 81.1545 186.847 101.629C186.847 105.355 186.751 109.038 186.56 112.678C190.903 113.347 195.204 114.259 199.445 115.411L199.595 101.934Z" fill="white"/>
<path d="M177.81 41.2399C152.24 10.2443 110.008 -1.43704 72.1444 12.0133C58.4808 34.2304 49.9227 66.1488 49.9227 101.624C49.9227 104.257 49.9713 106.87 50.0685 109.463C64.2787 108.365 80.7298 107.686 98.3469 107.563C98.3469 107.563 102.35 107.563 104.168 107.563C131.724 107.233 159.267 108.949 186.569 112.696C186.754 109.053 186.85 105.37 186.856 101.647C186.985 81.1646 183.934 60.7862 177.81 41.2399Z" fill="white"/>
<path d="M142.549 47.5525L136.501 9.74966C136.071 6.96837 134.078 4.68308 131.381 3.87882C113.758 -1.29294 95.0194 -1.29294 77.3959 3.87882C74.7008 4.68456 72.71 6.96955 72.2811 9.74966L66.2281 47.5525" fill="white"/>
<path d="M104.168 106.762C102.346 106.762 100.538 106.762 98.7432 106.762H98.5428H98.3424C43.5373 107.144 0.027529 112.901 0.027529 119.947V130.159C-0.0612627 130.757 0.0663196 131.368 0.38734 131.88C3.17078 129.79 6.37019 128.321 9.76974 127.572C18.4278 125.465 27.2277 123.992 36.0997 123.163C41.1384 122.61 46.1713 124.253 49.9137 127.672C56.7659 133.945 65.7193 137.424 75.0093 137.423H133.308C142.598 137.423 151.551 133.945 158.403 127.672C162.146 124.249 167.181 122.604 172.222 123.158C181.092 123.987 189.891 125.46 198.547 127.567C201.767 128.186 204.807 129.517 207.447 131.461C207.597 131.612 207.77 131.744 207.902 131.88C208.226 131.365 208.355 130.751 208.267 130.15V119.938C208.299 112.674 161.674 106.762 104.168 106.762Z" fill="white"/>
<path d="M126.102 76.4376L104.14 89.9555V107.513L126.102 76.4376Z" fill="white"/>
<path d="M104.163 107.513V89.9555L82.201 76.4376L104.163 107.513Z" fill="white"/>
<path d="M82.201 68.4171L104.163 81.1152V32.896L82.201 68.4171Z" fill="white"/>
<path d="M126.102 68.417L104.14 32.8914V55.7143V81.1106L126.102 68.4125V68.417Z" fill="white"/>
</svg>
