<svg width="908" height="182" viewBox="0 0 908 182" fill="none" xmlns="http://www.w3.org/2000/svg">
<mask id="mask0_21_19" style="mask-type:luminance" maskUnits="userSpaceOnUse" x="0" y="0" width="167" height="167">
<path d="M166.031 0H0V166.031H166.031V0Z" fill="white"/>
</mask>
<g mask="url(#mask0_21_19)">
<path d="M83.7357 0.00112797C37.3162 -0.386278 -0.386767 37.3167 0.00063969 83.7363C0.388046 128.814 37.2193 165.645 82.2828 166.018C128.703 166.42 166.419 128.703 166.018 82.2834C165.644 37.2199 128.814 0.388533 83.7357 0.00112797ZM58.9143 41.3153C64.2273 48.0672 67.4095 56.6043 67.4095 65.8739C67.4095 73.8991 65.0293 81.3705 60.9343 87.6102H32.1554L58.9143 41.3153ZM146.662 97.8628C146.662 98.25 146.454 98.5821 146.095 98.7343C144.144 99.5645 137.71 102.553 135.026 106.275C128.121 115.891 122.85 131 111.062 131H61.8747C44.4555 131 29.8863 117.178 29.9001 98.7619C29.9001 98.3057 30.2875 97.9317 30.7441 97.9317H54.0577C54.8602 97.9317 55.4966 98.5821 55.4966 99.3709V103.868C55.4966 106.261 57.4338 108.198 59.8272 108.198H77.5098V97.9042H65.4309C72.3766 89.1045 76.5136 77.9942 76.5136 65.9015C76.5136 52.4117 71.3385 40.1116 62.8709 30.9106C67.9903 31.5056 72.8885 32.5294 77.5098 33.8854V31.0213C77.5098 28.0466 79.917 25.6391 82.8918 25.6391C85.8666 25.6391 88.2737 28.0466 88.2737 31.0213V37.9255C104.78 45.6321 115.586 58.4163 115.586 72.8748C115.586 81.3567 111.878 89.2567 105.472 95.898C104.241 97.1711 102.539 97.8904 100.754 97.8904H88.2737V108.171H103.936C107.312 108.171 113.373 101.764 116.25 97.9042C116.25 97.9042 116.375 97.7106 116.707 97.6135C117.039 97.5169 145.472 90.9866 145.472 90.9866C146.066 90.8205 146.662 91.2767 146.662 91.8857V97.8628Z" fill="white"/>
</g>
<path d="M261.481 140.454C250.917 140.454 241.216 137.975 232.378 133.017C223.539 128.058 216.533 121.214 211.36 112.483C206.186 103.644 203.599 93.6742 203.599 82.5716C203.599 71.5771 206.186 61.7147 211.36 52.9834C216.533 44.1448 223.539 37.2467 232.378 32.2885C241.216 27.3302 250.917 24.8511 261.481 24.8511C272.152 24.8511 281.853 27.3302 290.584 32.2885C299.422 37.2467 306.375 44.1448 311.441 52.9834C316.615 61.7147 319.202 71.5771 319.202 82.5716C319.202 93.6742 316.615 103.644 311.441 112.483C306.375 121.214 299.422 128.058 290.584 133.017C281.745 137.975 272.044 140.454 261.481 140.454ZM261.481 120.243C268.272 120.243 274.254 118.734 279.428 115.716C284.602 112.591 288.643 108.171 291.554 102.459C294.464 96.7455 295.92 90.1167 295.92 82.5716C295.92 75.0264 294.464 68.4517 291.554 62.8467C288.643 57.1335 284.602 52.7678 279.428 49.7498C274.254 46.7317 268.272 45.2226 261.481 45.2226C254.69 45.2226 248.654 46.7317 243.372 49.7498C238.198 52.7678 234.157 57.1335 231.247 62.8467C228.336 68.4517 226.881 75.0264 226.881 82.5716C226.881 90.1167 228.336 96.7455 231.247 102.459C234.157 108.171 238.198 112.591 243.372 115.716C248.654 118.734 254.69 120.243 261.481 120.243Z" fill="white"/>
<path d="M352.21 62.6844C355.121 58.5885 359.109 55.1934 364.175 52.4991C369.349 49.6966 375.223 48.2949 381.798 48.2949C389.451 48.2949 396.349 50.181 402.494 53.954C408.745 57.7262 413.65 63.1156 417.207 70.1223C420.872 77.0208 422.704 85.0512 422.704 94.2128C422.704 103.375 420.872 111.513 417.207 118.627C413.65 125.633 408.745 131.076 402.494 134.957C396.349 138.837 389.451 140.777 381.798 140.777C375.223 140.777 369.402 139.43 364.337 136.736C359.378 134.04 355.336 130.645 352.21 126.549V182.007H329.575V49.7498H352.21V62.6844ZM399.583 94.2128C399.583 88.8234 398.452 84.1889 396.188 80.3085C394.032 76.3199 391.122 73.3018 387.457 71.2543C383.9 69.2059 380.02 68.1821 375.816 68.1821C371.72 68.1821 367.84 69.26 364.175 71.4158C360.618 73.4633 357.708 76.4814 355.444 80.47C353.288 84.4577 352.21 89.1472 352.21 94.5366C352.21 99.926 353.288 104.615 355.444 108.602C357.708 112.591 360.618 115.663 364.175 117.819C367.84 119.866 371.72 120.89 375.816 120.89C380.02 120.89 383.9 119.812 387.457 117.657C391.122 115.501 394.032 112.429 396.188 108.441C398.452 104.453 399.583 99.7104 399.583 94.2128Z" fill="white"/>
<path d="M520.802 92.5964C520.802 95.8301 520.586 98.7399 520.155 101.327H454.674C455.213 107.794 457.476 112.861 461.465 116.525C465.453 120.19 470.357 122.022 476.177 122.022C484.585 122.022 490.568 118.412 494.124 111.189H518.539C515.952 119.812 510.994 126.926 503.664 132.531C496.334 138.029 487.334 140.777 476.663 140.777C468.04 140.777 460.279 138.891 453.38 135.118C446.59 131.238 441.254 125.795 437.374 118.789C433.601 111.783 431.715 103.698 431.715 94.5366C431.715 85.2668 433.601 77.1281 437.374 70.1223C441.147 63.1156 446.428 57.7262 453.219 53.954C460.009 50.181 467.824 48.2949 476.663 48.2949C485.178 48.2949 492.777 50.1278 499.46 53.7926C506.251 57.4574 511.479 62.6844 515.144 69.4756C518.916 76.1584 520.802 83.8651 520.802 92.5964ZM497.358 86.1291C497.251 80.3085 495.148 75.6732 491.052 72.2239C486.956 68.6674 481.945 66.8886 476.016 66.8886C470.411 66.8886 465.668 68.6133 461.788 72.0625C458.016 75.4035 455.698 80.0929 454.835 86.1291H497.358Z" fill="white"/>
<path d="M582.11 48.4564C592.781 48.4564 601.404 51.8524 607.979 58.6426C614.555 65.3255 617.842 74.7035 617.842 86.7758V139.322H595.207V89.8471C595.207 82.7331 593.428 77.2904 589.871 73.5174C586.314 69.637 581.463 67.6968 575.32 67.6968C569.068 67.6968 564.11 69.637 560.445 73.5174C556.887 77.2904 555.11 82.7331 555.11 89.8471V139.322H532.474V49.7498H555.11V60.9066C558.128 57.0262 561.954 54.0081 566.588 51.8524C571.331 49.5884 576.505 48.4564 582.11 48.4564Z" fill="white"/>
<path d="M670.249 140.454C662.38 140.454 655.266 139.107 648.907 136.412C642.655 133.717 637.697 129.837 634.032 124.77C630.367 119.705 628.48 113.723 628.373 106.824H652.625C652.949 111.459 654.565 115.124 657.476 117.819C660.494 120.513 664.59 121.861 669.764 121.861C675.045 121.861 679.195 120.621 682.213 118.142C685.231 115.555 686.74 112.214 686.74 108.118C686.74 104.776 685.716 102.028 683.668 99.8718C681.621 97.716 679.034 96.0455 675.907 94.8594C672.889 93.566 668.686 92.1652 663.296 90.6561C655.967 88.5003 649.985 86.3978 645.349 84.3503C640.822 82.1945 636.888 79.015 633.547 74.8108C630.313 70.4992 628.696 64.7869 628.696 57.6729C628.696 50.99 630.367 45.1694 633.708 40.2111C637.05 35.2526 641.739 31.48 647.775 28.8931C653.811 26.1984 660.71 24.8511 668.47 24.8511C680.111 24.8511 689.543 27.7074 696.765 33.4202C704.095 39.025 708.136 46.894 708.891 57.0261H683.992C683.776 53.1458 682.106 49.9653 678.979 47.4866C675.961 44.8997 671.92 43.6063 666.853 43.6063C662.434 43.6063 658.877 44.7383 656.182 47.0014C653.596 49.2654 652.302 52.5523 652.302 56.8638C652.302 59.8819 653.272 62.4156 655.212 64.4631C657.26 66.4033 659.739 68.0206 662.65 69.314C665.668 70.4992 669.871 71.9009 675.261 73.5173C682.59 75.6731 688.573 77.8289 693.208 79.9846C697.843 82.1404 701.831 85.374 705.172 89.6856C708.513 93.9971 710.184 99.6562 710.184 106.662C710.184 112.698 708.622 118.303 705.495 123.477C702.37 128.651 697.789 132.801 691.753 135.927C685.716 138.945 678.548 140.454 670.249 140.454Z" fill="white"/>
<path d="M806.61 92.5964C806.61 95.8301 806.389 98.7399 805.963 101.327H740.48C741.018 107.794 743.281 112.861 747.27 116.525C751.258 120.19 756.163 122.022 761.983 122.022C770.391 122.022 776.377 118.412 779.934 111.189H804.348C801.758 119.812 796.799 126.926 789.471 132.531C782.143 138.029 773.139 140.777 762.468 140.777C753.845 140.777 746.085 138.891 739.186 135.118C732.395 131.238 727.06 125.795 723.18 118.789C719.407 111.783 717.521 103.698 717.521 94.5366C717.521 85.2668 719.407 77.1281 723.18 70.1223C726.952 63.1156 732.234 57.7262 739.024 53.954C745.815 50.181 753.629 48.2949 762.468 48.2949C770.984 48.2949 778.586 50.1278 785.266 53.7926C792.052 57.4574 797.287 62.6844 800.95 69.4756C804.721 76.1584 806.61 83.8651 806.61 92.5964ZM783.163 86.1291C783.057 80.3085 780.954 75.6732 776.856 72.2239C772.762 68.6674 767.75 66.8886 761.821 66.8886C756.216 66.8886 751.473 68.6133 747.593 72.0625C743.821 75.4035 741.504 80.0929 740.641 86.1291H783.163Z" fill="white"/>
<path d="M814.072 94.2128C814.072 85.1586 815.855 77.1281 819.412 70.1223C823.076 63.1156 827.982 57.7262 834.121 53.954C840.375 50.181 847.331 48.2949 854.978 48.2949C861.667 48.2949 867.487 49.6425 872.446 52.3368C877.511 55.0319 881.548 58.427 884.573 62.523V49.7498H907.364V139.322H884.573V126.226C881.654 130.43 877.618 133.933 872.446 136.736C867.38 139.43 861.498 140.777 854.818 140.777C847.278 140.777 840.375 138.837 834.121 134.957C827.982 131.076 823.076 125.633 819.412 118.627C815.855 111.513 814.072 103.375 814.072 94.2128ZM884.573 94.5366C884.573 89.0389 883.491 84.3504 881.335 80.47C879.179 76.4814 876.269 73.4633 872.606 71.4158C868.942 69.26 865.003 68.1821 860.798 68.1821C856.601 68.1821 852.716 69.2059 849.158 71.2543C845.601 73.3018 842.691 76.3199 840.429 80.3085C838.273 84.1889 837.199 88.8234 837.199 94.2128C837.199 99.6022 838.273 104.345 840.429 108.441C842.691 112.429 845.601 115.501 849.158 117.657C852.822 119.812 856.708 120.89 860.798 120.89C865.003 120.89 868.942 119.866 872.606 117.819C876.269 115.663 879.179 112.645 881.335 108.765C883.491 104.776 884.573 100.033 884.573 94.5366Z" fill="white"/>
</svg>
