<svg width="750" height="201" viewBox="0 0 750 201" fill="none" xmlns="http://www.w3.org/2000/svg">
<path d="M223.908 99.7166H235.385C248.094 99.7166 254.444 94.1712 254.444 83.0909C254.444 72.0105 248.094 66.4651 235.385 66.4651H223.908V99.7062V99.7166ZM223.908 171.87H189.309V38.5397H244.377C259.321 38.5397 270.736 42.435 278.62 50.2153C286.62 57.9956 290.62 68.961 290.62 83.1013C290.62 97.2416 286.62 108.207 278.62 115.987C270.736 123.768 259.321 127.663 244.377 127.663H223.897V171.87H223.908Z" fill="white"/>
<path d="M334.356 81.1484V171.859H302.41V81.1484H334.356ZM300.29 46.3095C300.29 43.8344 300.76 41.5369 301.7 39.4169C302.64 37.182 303.935 35.2291 305.585 33.5791C307.235 31.929 309.115 30.634 311.235 29.6837C313.47 28.7438 315.819 28.2739 318.294 28.2739C320.769 28.2739 323.057 28.7438 325.177 29.6837C327.411 30.6236 329.354 31.9186 331.004 33.5791C332.654 35.2396 333.949 37.1716 334.889 39.4169C335.829 41.5369 336.299 43.8344 336.299 46.3095C336.299 48.7845 335.829 51.1447 334.889 53.3796C333.949 55.4996 332.654 57.3898 331.004 59.0399C329.354 60.6899 327.411 61.9849 325.177 62.9352C323.057 63.8751 320.769 64.3451 318.294 64.3451C315.819 64.3451 313.47 63.8751 311.235 62.9352C309.115 61.9953 307.235 60.7004 305.585 59.0399C303.935 57.3898 302.64 55.4996 301.7 53.3796C300.76 51.1447 300.29 48.7845 300.29 46.3095Z" fill="white"/>
<path d="M352.663 81.1483H384.61V92.6464C388.964 87.3412 393.371 83.8009 397.852 82.036C402.321 80.1458 407.564 79.2059 413.558 79.2059C419.918 79.2059 425.328 80.2711 429.798 82.3911C434.382 84.3962 438.267 87.2786 441.442 91.059C444.032 94.1189 445.797 97.5443 446.737 101.314C447.677 105.084 448.147 109.387 448.147 114.222V171.869H416.201V126.065C416.201 121.585 415.845 117.992 415.146 115.277C414.561 112.447 413.433 110.212 411.793 108.562C410.384 107.152 408.796 106.15 407.031 105.554C405.266 104.959 403.387 104.667 401.381 104.667C395.972 104.667 391.795 106.317 388.849 109.617C386.03 112.802 384.61 117.397 384.61 123.412V171.869H352.663V81.1588V81.1483Z" fill="white"/>
<path d="M492.468 126.243C492.468 129.188 493.001 131.955 494.055 134.556C495.11 137.031 496.531 139.213 498.295 141.103C500.175 142.994 502.358 144.466 504.823 145.521C507.412 146.586 510.18 147.108 513.125 147.108C516.07 147.108 518.597 146.576 521.072 145.521C523.662 144.456 525.834 142.983 527.599 141.103C529.479 139.213 530.952 137.041 532.017 134.556C533.197 132.08 533.782 129.428 533.782 126.598C533.782 123.768 533.197 121.115 532.017 118.64C530.952 116.05 529.49 113.805 527.599 111.925C525.834 110.035 523.662 108.562 521.072 107.507C518.597 106.442 515.955 105.92 513.125 105.92C510.295 105.92 507.412 106.453 504.823 107.507C502.358 108.573 500.175 110.045 498.295 111.925C496.531 113.815 495.121 115.987 494.055 118.473C493.001 120.833 492.468 123.423 492.468 126.253V126.243ZM532.706 81.1484H564.83V171.859H532.706V161.781C525.887 170.387 516.644 174.689 505 174.689C498.41 174.689 492.353 173.509 486.818 171.149C481.283 168.674 476.459 165.259 472.344 160.894C468.219 156.528 464.992 151.401 462.632 145.511C460.397 139.621 459.279 133.187 459.279 126.232C459.279 119.747 460.397 113.617 462.632 107.842C464.866 101.951 467.989 96.8238 471.989 92.4585C475.989 88.0932 480.751 84.6782 486.286 82.2032C491.821 79.6132 497.93 78.3078 504.645 78.3078C515.945 78.3078 525.291 82.2554 532.706 90.1505V81.1275V81.1484Z" fill="white"/>
<path d="M618.697 107.852V171.869H586.75V107.852H576.161V81.1484H586.75V53.9122H618.697V81.1484H636.878V107.852H618.697Z" fill="white"/>
<path d="M676.74 126.243C676.74 129.188 677.273 131.955 678.328 134.556C679.383 137.031 680.803 139.213 682.568 141.103C684.448 142.994 686.62 144.466 689.095 145.521C691.685 146.586 694.452 147.108 697.387 147.108C700.321 147.108 702.859 146.576 705.334 145.521C707.924 144.456 710.096 142.983 711.861 141.103C713.741 139.213 715.214 137.041 716.268 134.556C717.449 132.08 718.033 129.428 718.033 126.598C718.033 123.768 717.449 121.115 716.268 118.64C715.214 116.05 713.741 113.805 711.861 111.925C710.096 110.035 707.914 108.562 705.334 107.507C702.859 106.442 700.217 105.92 697.387 105.92C694.557 105.92 691.685 106.453 689.095 107.507C686.62 108.573 684.448 110.045 682.568 111.925C680.803 113.815 679.393 115.987 678.328 118.473C677.273 120.833 676.74 123.423 676.74 126.253V126.243ZM716.979 81.1484H749.102V171.859H716.979V161.781C710.159 170.387 700.917 174.689 689.272 174.689C682.683 174.689 676.626 173.509 671.091 171.149C665.556 168.674 660.731 165.259 656.616 160.894C652.502 156.528 649.264 151.401 646.904 145.511C644.669 139.621 643.552 133.187 643.552 126.232C643.552 119.747 644.669 113.617 646.904 107.842C649.139 101.951 652.261 96.8238 656.261 92.4585C660.261 88.0932 665.023 84.6782 670.558 82.2032C676.093 79.6132 682.202 78.3078 688.917 78.3078C700.217 78.3078 709.574 82.2554 716.979 90.1505V81.1275V81.1484Z" fill="white"/>
<mask id="mask0_16_2" style="mask-type:luminance" maskUnits="userSpaceOnUse" x="0" y="0" width="136" height="201">
<path d="M135.474 0.150024H0.640015V200.15H135.474V0.150024Z" fill="white"/>
</mask>
<g mask="url(#mask0_16_2)">
<path d="M81.7115 179.399H108.342V186.574C108.342 193.915 102.379 199.868 95.0268 199.868C87.6747 199.868 81.7115 193.905 81.7115 186.574V179.399Z" fill="white"/>
<path d="M111.496 165.238L115.151 179.838L74.2236 179.733L79.4662 165.155H74.2236L79.4766 150.544H111.485L115.151 165.238H111.496Z" fill="white"/>
<path d="M21.8922 179.399H48.5227V186.574C48.5227 193.915 42.5595 199.868 35.2074 199.868C27.8553 199.868 21.8922 193.905 21.8922 186.574V179.399Z" fill="white"/>
<path d="M51.6766 165.238L55.3213 179.838L14.3939 179.733L19.6365 165.155H14.3939L19.6469 150.544H51.6557L55.3213 165.238H51.6766Z" fill="white"/>
<path d="M109.386 137.166L115.903 151.411L16.0753 150.523L24.6179 136.404L16.0753 136.331L25.2863 121.104L18.7279 121.031L26.7588 104.844L52.7 108.385H107.653L113.24 122.128L108.969 122.076L115.892 137.229L109.376 137.177L109.386 137.166Z" fill="white"/>
<path d="M107.037 94.1608L111.924 108.583H53.3475L59.0182 94.1608H53.3475L59.1331 79.467H106.943L111.924 94.1608H107.037Z" fill="white"/>
<path d="M113.679 79.5297H52.3867L60.355 63.1337L53.7443 62.9979L65.7333 39.1872L113.741 49.7976L113.668 79.5297H113.679Z" fill="white"/>
<path d="M26.7692 104.844C26.7692 100.5 25.9755 94.777 23.9286 91.5082C21.2029 87.1533 16.305 84.1665 6.77026 84.0934L6.63449 89.5344C10.039 89.3986 13.3078 89.7433 16.0961 91.5082C18.4772 93.0016 20.451 95.4558 21.9548 99.5391C13.642 96.6777 8.87981 97.5653 5.54839 99.748C3.77302 100.907 2.41539 102.338 1.12042 103.894L4.86958 107.361C5.07844 107.017 5.34996 106.745 5.54839 106.473C9.63172 101.638 14.3312 101.784 19.3022 104.437C8.47252 109.606 6.77026 118.723 7.31331 125.324C7.7937 125.397 12.629 125.324 12.629 125.324C12.1486 118.932 15.9604 110.118 25.4951 107.539L26.7797 104.855L26.7692 104.844Z" fill="white"/>
<path d="M98.567 46.4766C114.566 24.295 122.472 13.3504 116.133 7.97205C111.976 4.43177 105.867 7.41856 96.7395 14.2276C96.3948 21.5066 95.173 31.48 92.8546 45.2234L98.5566 46.487L98.567 46.4766Z" fill="white"/>
<path d="M91.8937 0.755742C83.2467 -1.35381 78.2756 12.3896 65.7437 39.1872L93.6064 45.3696C95.9248 31.6262 97.1989 21.6006 97.1363 13.8099C97.4809 5.98784 96.1128 1.76875 91.8937 0.745305V0.755742Z" fill="white"/>
<path d="M94.818 66.392C98.4627 66.392 101.418 63.4366 101.418 59.7918C101.418 56.1471 98.4627 53.1917 94.818 53.1917C91.1732 53.1917 88.2178 56.1471 88.2178 59.7918C88.2178 63.4366 91.1732 66.392 94.818 66.392Z" fill="white"/>
<path d="M113.679 79.5297L113.752 49.7976C113.752 49.7976 131.265 53.7452 135.046 63.5306C135.317 64.2407 135.432 64.9926 135.432 65.7445C136.142 79.0389 113.679 79.5193 113.679 79.5193V79.5297Z" fill="white"/>
<path d="M113.679 78.4019V79.5402H110.044L102.18 76.1461C101.575 75.9059 100.781 75.0183 101.105 74.3812C101.303 73.9844 102.086 73.5144 103.361 74.0157L113.679 78.4019Z" fill="white"/>
<path d="M23.9704 123.298L29.7142 128.697L39.249 119.716L48.5122 128.895L57.9739 119.914L67.4355 128.895L76.6987 119.716L86.1604 128.697L95.6951 119.653L97.4601 121.418L103.538 127.141L108.989 122.076L110.702 125.825L103.601 132.916L103.549 132.864L95.5489 124.948L86.0873 134.399L76.6256 124.948L67.164 134.399L57.9008 125.146L48.4391 134.127L39.249 125.01L29.7873 134.462L21.9235 126.66" fill="white"/>
<path d="M95.0267 63.0815C96.8752 62.9457 98.2537 61.3688 98.1179 59.583C97.9822 57.7345 96.4052 56.356 94.609 56.4918C92.7605 56.6275 91.382 58.2045 91.5178 59.9903C91.5909 61.7761 93.1678 63.2173 95.0267 63.0815Z" fill="white"/>
</g>
</svg>
